<?xml version="1.0" encoding="UTF-8" standalone="no"?>
<svg
   xmlns:dc="http://purl.org/dc/elements/1.1/"
   xmlns:cc="http://creativecommons.org/ns#"
   xmlns:rdf="http://www.w3.org/1999/02/22-rdf-syntax-ns#"
   xmlns:svg="http://www.w3.org/2000/svg"
   xmlns="http://www.w3.org/2000/svg"
   xmlns:sodipodi="http://sodipodi.sourceforge.net/DTD/sodipodi-0.dtd"
   xmlns:inkscape="http://www.inkscape.org/namespaces/inkscape"
   id="SvgjsSvg1001"
   width="288"
   height="288"
   version="1.1"
   sodipodi:docname="webpage.svg"
   inkscape:version="1.0 (4035a4f, 2020-05-01)">
  <metadata
     id="metadata86">
    <rdf:RDF>
      <cc:Work
         rdf:about="">
        <dc:format>image/svg+xml</dc:format>
        <dc:type
           rdf:resource="http://purl.org/dc/dcmitype/StillImage" />
        <dc:title></dc:title>
      </cc:Work>
    </rdf:RDF>
  </metadata>
  <sodipodi:namedview
     inkscape:document-rotation="0"
     pagecolor="#ffffff"
     bordercolor="#666666"
     borderopacity="1"
     objecttolerance="10"
     gridtolerance="10"
     guidetolerance="10"
     inkscape:pageopacity="0"
     inkscape:pageshadow="2"
     inkscape:window-width="1440"
     inkscape:window-height="787"
     id="namedview84"
     showgrid="false"
     inkscape:zoom="2.0104167"
     inkscape:cx="89.143846"
     inkscape:cy="115.15026"
     inkscape:window-x="0"
     inkscape:window-y="25"
     inkscape:window-maximized="0"
     inkscape:current-layer="SvgjsSvg1001" />
  <defs
     id="SvgjsDefs1002" />
  <g
     id="SvgjsG1008"
     transform="matrix(0.9167,0,0,0.9167,11.995200000000011,11.995200000000011)">
    <svg
       width="288"
       height="288"
       viewBox="0 0 64 64"
       version="1.1"
       id="svg80">
      <path
         d="M0 58h64V6H0v52zm2-2V16h60v40H2zM62 8v6H2V8h60z"
         fill="#6666ff"
         class="color000 svgShape"
         id="path76" />
      <path
         d="M6 10h4v2H6zM14 10h4v2h-4zM22 10h4v2h-4zM6 24h27v2H6zM6 32h27v2H6zM6 40h27v2H6zM37 42h21V24H37v18zm2-16h17v14H39V26z"
         fill="#6666ff"
         class="color000 svgShape"
         id="path78" />
    </svg>
  </g>
  <path
     style="fill:#ff0000;stroke-width:0.497409"
     d="m 40.911917,61.557395 c 2.256995,-0.09217 5.950259,-0.09217 8.207254,0 2.256995,0.09217 0.410363,0.167575 -4.103627,0.167575 -4.51399,0 -6.360622,-0.07541 -4.103627,-0.167575 z"
     id="path94" />
  <path
     style="fill:#ff0000;stroke-width:0.497409"
     d=""
     id="path96" />
  <path
     style="fill:#2b0000;fill-opacity:1;stroke-width:0.497409"
     d="M 12.186528,144 V 37.056995 H 144 275.81347 V 144 250.94301 H 144 12.186528 Z M 267.85492,160.66321 V 77.84456 H 144 20.145078 v 82.81865 82.81866 H 144 267.85492 Z m 0,-103.461137 V 44.518135 H 144 20.145078 V 57.202073 69.88601 H 144 267.85492 Z"
     id="path933" />
  <path
     id="path98"
     d="M 31.875645,58.246699 V 53.2467 H 44.375646 56.875645 V 58.246699 63.2467 H 44.375646 31.875645 Z"
     style="fill:#ff0000;stroke-width:0.698771" />
  <path
     style="fill:#ffff00;stroke-width:0.69877"
     d="M 64,58.246699 V 53.2467 H 76.5 89 V 58.246699 63.2467 H 76.5 64 Z"
     id="path98-3" />
  <path
     style="fill:#55d400;stroke-width:0.69877"
     d="M 99.37823,58.246699 V 53.2467 h 12.50001 12.49999 V 58.246699 63.2467 H 111.87824 99.37823 Z"
     id="path98-9" />
</svg>
